<svg id="Capa_1" data-name="Capa 1" xmlns="http://www.w3.org/2000/svg" xmlns:xlink="http://www.w3.org/1999/xlink" viewBox="0 0 74.08 72.84"><defs><style>.cls-1{fill:none;}.cls-2{fill:#127780;}.cls-3{clip-path:url(#clip-path);}</style><clipPath id="clip-path" transform="translate(-0.5 -0.5)"><circle class="cls-1" cx="36.92" cy="36.92" r="36.42"/></clipPath></defs><title>logo</title><circle class="cls-2" cx="36.42" cy="36.42" r="36.42"/><g class="cls-3"><path d="M0.58,56.5V49.42C4.3,48,3.95,47.84,4,46.91a2.31,2.31,0,0,1,1.55-2.24v-3.8a14.72,14.72,0,0,1-1.27-3.12C3.93,36.2,2,32.3,3.11,31.5c0,0,.73-0.29.63-1.8s-1.12-7,2.63-9.25,3.55-2.29,5.16-2.34,8,2.39,8.18,5.75,0,7.16,0,7.16a1.65,1.65,0,0,1,.92,1.66,44.58,44.58,0,0,1-1.36,5.16A6.37,6.37,0,0,1,17.58,41v3.17a2.63,2.63,0,0,1,1.17,1A5.71,5.71,0,0,1,19.43,47s-8.32,3.7-10.08,5.84V56.5H0.58Z" transform="translate(-0.5 -0.5)"/><path d="M12.16,56.5V54.21a63.09,63.09,0,0,1,9.54-5c5.12-2.11,5.88-2.35,6.24-3.71s0.88-2.68,1.66-3,1.36-3.65.92-4.38-2.14-2.24-2.43-4.92-1.51-2.7-1.32-6.3c0,0,.88,0,0.92-2.48s-1.85-8.92,3.95-11.59S40.06,10,40.89,10s2.29,0,1.17.44-1.43,1,.41,2.39,4.22,3.7,4.17,5.75,0,7.4,0,7.4-0.15.39,0.49,0.73,0.39,1.56.29,2.19a7.71,7.71,0,0,1-.63,2.48c-0.34.44-1.12,4.24-1.75,4.92a3.2,3.2,0,0,0-1.22,2.39c0.1,1-.24,3.21.54,3.94s0.78,1.31,1.12,2.39,0.34,1.85,4.14,3.12,7.74,3.07,7.74,3.07,3.9,1.75,4.33,2.92V56.5H12.16Z" transform="translate(-0.5 -0.5)"/><path d="M64.41,56.5H74.58v-7c-6-2.1-5.26-2.55-5.4-2.84A1.55,1.55,0,0,0,67.87,46c-0.63,0-1.41-1.31-1.61-3.6s0.68-2.19,1.65-2.53,3.85-.63,3.21-2.34a23.56,23.56,0,0,1-2-9.3c-0.1-5-1.85-8.76-6.43-9.3,0,0-.68-0.29-3.31.63S56.26,21.1,55.78,22s-0.92,2.88-1.2,6.14-0.93,7.34-1.67,8.47a1.38,1.38,0,0,0,.88,2.29c1,0.19,3.45.73,3.45,3s0.11,3.58-1.66,4.31-1.22.68-1.22,0.68,5,2,6,2.63a52.28,52.28,0,0,1,4.14,3.31Z" transform="translate(-0.5 -0.5)"/></g></svg>